<svg xmlns="http://www.w3.org/2000/svg" width="1179" height="733" viewBox="0 0 1179 733">
  <rect width="1179" height="733" fill="#f5f7fb"/>
  <rect x="0" y="0" width="1179" height="41" fill="#fff" stroke="#dce2ed"/>
  <text x="369" y="21" fill="#33405b" font-family="Arial, sans-serif" font-size="12" font-weight="800">Benefits</text><text x="437" y="21" fill="#33405b" font-family="Arial, sans-serif" font-size="12" font-weight="800">Reports</text><text x="503" y="21" fill="#33405b" font-family="Arial, sans-serif" font-size="12" font-weight="800">Demos</text><text x="572" y="21" fill="#33405b" font-family="Arial, sans-serif" font-size="12" font-weight="800">Plans</text><text x="622" y="21" fill="#33405b" font-family="Arial, sans-serif" font-size="12" font-weight="800">Contact</text>
  <text x="119" y="137" fill="#ff5b30" font-family="Arial, sans-serif" font-size="11" font-weight="900">SEO AUDIT SOFTWARE FOR THE AI SEARCH ERA</text>
  <text x="119" y="187" fill="#000b25" font-family="Arial, sans-serif" font-size="46" font-weight="900">Find the SEO and AI</text><text x="119" y="232" fill="#000b25" font-family="Arial, sans-serif" font-size="46" font-weight="900">search issues</text><text x="119" y="277" fill="#000b25" font-family="Arial, sans-serif" font-size="46" font-weight="900">costing you</text><text x="119" y="322" fill="#000b25" font-family="Arial, sans-serif" font-size="46" font-weight="900">visibility.</text>
  <text x="119" y="361" fill="#192646" font-family="Arial, sans-serif" font-size="15">AI SEO audits your website for technical SEO, content quality,</text><text x="119" y="383" fill="#192646" font-family="Arial, sans-serif" font-size="15">performance, structured data, and AI crawler access, then shows</text><text x="119" y="405" fill="#192646" font-family="Arial, sans-serif" font-size="15">your team exactly what to fix first.</text>
  <rect x="119" y="432" width="420" height="51" rx="8" fill="#fff" stroke="#d8e0ee"/><text x="136" y="464" fill="#7a8398" font-family="Arial, sans-serif" font-size="14" font-weight="800">example.com</text><rect x="416" y="438" width="116" height="39" rx="7" fill="#ff5b30"/><text x="446" y="462" fill="#fff" font-family="Arial, sans-serif" font-size="12" font-weight="900">Run free audit</text>
  <rect x="606" y="146" width="412" height="357" rx="7" fill="#fff4ed" stroke="#dce2ed"/><rect x="606" y="146" width="412" height="31" rx="7" fill="#111729"/><circle cx="622" cy="162" r="4" fill="#ff5b30"/><circle cx="636" cy="162" r="4" fill="#ffc24b"/><circle cx="649" cy="162" r="4" fill="#32c878"/><rect x="618" y="195" width="25" height="25" rx="6" fill="#ff5b30"/><rect x="618" y="230" width="25" height="25" rx="6" fill="#333a4e"/><rect x="618" y="265" width="25" height="25" rx="6" fill="#333a4e"/><rect x="656" y="177" width="362" height="326" fill="#fff8f4"/>
  <circle cx="724" cy="244" r="48" fill="none" stroke="#e9eef6" stroke-width="12"/><path d="M724 196a48 48 0 1 1-22 91" fill="none" stroke="#39c878" stroke-width="12"/><text x="709" y="251" fill="#000b25" font-family="Arial, sans-serif" font-size="32" font-weight="900">91</text><text x="711" y="267" fill="#65718b" font-family="Arial, sans-serif" font-size="9" font-weight="800">health</text>
  <rect x="785" y="195" width="214" height="116" rx="6" fill="#fff" stroke="#d8e0ee"/><text x="800" y="223" fill="#192646" font-family="Arial, sans-serif" font-size="12" font-weight="900">AI search health</text><rect x="800" y="273" width="29" height="22" rx="5" fill="#31c7be"/><rect x="838" y="260" width="30" height="35" rx="5" fill="#31c7be"/><rect x="878" y="267" width="30" height="28" rx="5" fill="#31c7be"/><rect x="917" y="247" width="30" height="48" rx="5" fill="#31c7be"/><rect x="957" y="240" width="30" height="55" rx="5" fill="#31c7be"/>
  <rect x="675" y="327" width="324" height="31" rx="5" fill="#fff" stroke="#d8e0ee"/><circle cx="690" cy="343" r="6" fill="#42d089"/><text x="704" y="347" fill="#192646" font-family="Arial, sans-serif" font-size="11" font-weight="900">Robots.txt allows verified AI crawlers</text><rect x="675" y="369" width="324" height="31" rx="5" fill="#fff" stroke="#d8e0ee"/><circle cx="690" cy="385" r="6" fill="#ffc24b"/><text x="704" y="389" fill="#192646" font-family="Arial, sans-serif" font-size="11" font-weight="900">Missing Product schema on 17 pages</text><rect x="675" y="411" width="324" height="31" rx="5" fill="#fff" stroke="#d8e0ee"/><circle cx="690" cy="427" r="6" fill="#ffc24b"/><text x="704" y="431" fill="#192646" font-family="Arial, sans-serif" font-size="11" font-weight="900">Largest Contentful Paint needs attention</text><rect x="675" y="453" width="324" height="31" rx="5" fill="#fff" stroke="#d8e0ee"/><circle cx="690" cy="469" r="6" fill="#ffc24b"/><text x="704" y="473" fill="#192646" font-family="Arial, sans-serif" font-size="11" font-weight="900">llms.txt not found at site root</text>
  <rect x="922" y="206" width="109" height="61" rx="7" fill="#fff"/><text x="936" y="238" fill="#192646" font-family="Arial, sans-serif" font-size="25" font-weight="900">24/7</text><text x="937" y="255" fill="#65718b" font-family="Arial, sans-serif" font-size="10" font-weight="900">issue alerts</text>
  <rect x="588" y="415" width="126" height="63" rx="5" fill="#fff"/><text x="600" y="450" fill="#192646" font-family="Arial, sans-serif" font-size="24" font-weight="900">Live</text><text x="600" y="464" fill="#65718b" font-family="Arial, sans-serif" font-size="10" font-weight="900">homepage evidence</text>
</svg>